<svg xmlns="http://www.w3.org/2000/svg" xmlns:xlink="http://www.w3.org/1999/xlink" width="2480" height="3508" viewBox="0 0 2480 3508">
  <defs>
    <filter id="Line_1" x="1090" y="143.996" width="32" height="3214.007" filterUnits="userSpaceOnUse">
      <feOffset dy="3" input="SourceAlpha"/>
      <feGaussianBlur stdDeviation="3" result="blur"/>
      <feFlood flood-color="#b2b2b2"/>
      <feComposite operator="in" in2="blur"/>
      <feComposite in="SourceGraphic"/>
    </filter>
    <clipPath id="clip-path">
      <rect width="150" height="597" fill="none"/>
    </clipPath>
    <clipPath id="clip-Web_1366_1">
      <rect width="2480" height="3508"/>
    </clipPath>
  </defs>
  <g id="Web_1366_1" data-name="Web 1366 – 1" clip-path="url(#clip-Web_1366_1)">
    <rect width="2480" height="3508" fill="#fefefe"/>
    <g transform="matrix(1, 0, 0, 1, 0, 0)" filter="url(#Line_1)">
      <line id="Line_1-2" data-name="Line 1" x2="12" y2="3196" transform="translate(1100 150)" fill="none" stroke="#707070" stroke-width="2"/>
    </g>
    <line id="Line_3" data-name="Line 3" x2="800" transform="translate(200)" fill="none" stroke="#707070" stroke-width="2"/>
    <text id="Jitendra_Sharma" data-name="Jitendra Sharma" transform="translate(150 226)" fill="#707070" font-size="80" font-family="Candara-Bold, Candara" font-weight="700"><tspan x="0" y="0">Jitendra Sharma</tspan></text>
    <text id="_6th_Aug_1999" data-name="6th Aug, 1999" transform="translate(150 304)" fill="#b2b2b2" font-size="60" font-family="Calibri-Bold, Calibri" font-weight="700"><tspan x="0" y="0">6th Aug, 1999</tspan></text>
    <text id="Contact" transform="translate(150 880)" fill="#707070" font-size="80" font-family="Cambria-Bold, Cambria" font-weight="700"><tspan x="0" y="76">Contact</tspan></text>
    <line id="Line_2" data-name="Line 2" transform="translate(200.5 1208.5)" fill="none" stroke="#707070" stroke-width="1"/>
    <line id="Line_4" data-name="Line 4" x2="875.543" y2="3" transform="translate(150 979)" fill="none" stroke="#707070" stroke-width="2"/>
    <g id="Repeat_Grid_2" data-name="Repeat Grid 2" transform="translate(150 1000)" clip-path="url(#clip-path)">
      <g transform="translate(-201 -882)">
        <g id="Path_1" data-name="Path 1" transform="translate(201 882)" fill="#4d4d4d">
          <path d="M 50 99.5 C 43.31732177734375 99.5 36.83480072021484 98.19129180908203 30.73251914978027 95.61025238037109 C 24.8381462097168 93.11714935302734 19.54437255859375 89.54794311523438 14.99821376800537 85.00178527832031 C 10.45205307006836 80.45562744140625 6.882853507995605 75.16184997558594 4.38974666595459 69.26747894287109 C 1.808706641197205 63.16519927978516 0.5 56.68267822265625 0.5 50 C 0.5 43.31732177734375 1.808706641197205 36.83480072021484 4.38974666595459 30.73251914978027 C 6.882853507995605 24.8381462097168 10.45205307006836 19.54437255859375 14.99821376800537 14.99821376800537 C 19.54437255859375 10.45205307006836 24.8381462097168 6.882853507995605 30.73251914978027 4.38974666595459 C 36.83480072021484 1.808706641197205 43.31732177734375 0.5 50 0.5 C 56.68267822265625 0.5 63.16519927978516 1.808706641197205 69.26747894287109 4.38974666595459 C 75.16184997558594 6.882853507995605 80.45562744140625 10.45205307006836 85.00178527832031 14.99821376800537 C 89.54794311523438 19.54437255859375 93.11714935302734 24.8381462097168 95.61025238037109 30.73251914978027 C 98.19129180908203 36.83480072021484 99.5 43.31732177734375 99.5 50 C 99.5 56.68267822265625 98.19129180908203 63.16519927978516 95.61025238037109 69.26747894287109 C 93.11714935302734 75.16184997558594 89.54794311523438 80.45562744140625 85.00178527832031 85.00178527832031 C 80.45562744140625 89.54794311523438 75.16184997558594 93.11714935302734 69.26747894287109 95.61025238037109 C 63.16519927978516 98.19129180908203 56.68267822265625 99.5 50 99.5 Z" stroke="none"/>
          <path d="M 50 1 C 43.38460159301758 1 36.96761322021484 2.29541015625 30.92729187011719 4.850250244140625 C 25.09253692626953 7.318145751953125 19.85215759277344 10.85137176513672 15.35177612304688 15.35177612304688 C 10.85137176513672 19.85215759277344 7.318145751953125 25.09253692626953 4.850250244140625 30.92729187011719 C 2.29541015625 36.96761322021484 1 43.38460159301758 1 50 C 1 56.61539840698242 2.29541015625 63.03238677978516 4.850250244140625 69.07270812988281 C 7.318145751953125 74.907470703125 10.85137176513672 80.14784240722656 15.35177612304688 84.64822387695313 C 19.85215759277344 89.14862823486328 25.09253692626953 92.68185424804688 30.92729187011719 95.14974975585938 C 36.96761322021484 97.70458984375 43.38460159301758 99 50 99 C 56.61539840698242 99 63.03238677978516 97.70458984375 69.07270812988281 95.14974975585938 C 74.907470703125 92.68185424804688 80.14784240722656 89.14862823486328 84.64822387695313 84.64822387695313 C 89.14862823486328 80.14784240722656 92.68185424804688 74.907470703125 95.14974975585938 69.07270812988281 C 97.70458984375 63.03238677978516 99 56.61539840698242 99 50 C 99 43.38460159301758 97.70458984375 36.96761322021484 95.14974975585938 30.92729187011719 C 92.68185424804688 25.09253692626953 89.14862823486328 19.85215759277344 84.64822387695313 15.35177612304688 C 80.14784240722656 10.85137176513672 74.907470703125 7.318145751953125 69.07270812988281 4.850250244140625 C 63.03238677978516 2.29541015625 56.61539840698242 1 50 1 M 50 0 C 77.61424255371094 0 100 22.38575744628906 100 50 C 100 77.61424255371094 77.61424255371094 100 50 100 C 22.38575744628906 100 0 77.61424255371094 0 50 C 0 22.38575744628906 22.38575744628906 0 50 0 Z" stroke="none" fill="#707070"/>
        </g>
      </g>
      <g transform="translate(-201 -762)">
        <g id="Path_1-2" data-name="Path 1" transform="translate(201 882)" fill="#4d4d4d">
          <path d="M 50 99.5 C 43.31732177734375 99.5 36.83480072021484 98.19129180908203 30.73251914978027 95.61025238037109 C 24.8381462097168 93.11714935302734 19.54437255859375 89.54794311523438 14.99821376800537 85.00178527832031 C 10.45205307006836 80.45562744140625 6.882853507995605 75.16184997558594 4.38974666595459 69.26747894287109 C 1.808706641197205 63.16519927978516 0.5 56.68267822265625 0.5 50 C 0.5 43.31732177734375 1.808706641197205 36.83480072021484 4.38974666595459 30.73251914978027 C 6.882853507995605 24.8381462097168 10.45205307006836 19.54437255859375 14.99821376800537 14.99821376800537 C 19.54437255859375 10.45205307006836 24.8381462097168 6.882853507995605 30.73251914978027 4.38974666595459 C 36.83480072021484 1.808706641197205 43.31732177734375 0.5 50 0.5 C 56.68267822265625 0.5 63.16519927978516 1.808706641197205 69.26747894287109 4.38974666595459 C 75.16184997558594 6.882853507995605 80.45562744140625 10.45205307006836 85.00178527832031 14.99821376800537 C 89.54794311523438 19.54437255859375 93.11714935302734 24.8381462097168 95.61025238037109 30.73251914978027 C 98.19129180908203 36.83480072021484 99.5 43.31732177734375 99.5 50 C 99.5 56.68267822265625 98.19129180908203 63.16519927978516 95.61025238037109 69.26747894287109 C 93.11714935302734 75.16184997558594 89.54794311523438 80.45562744140625 85.00178527832031 85.00178527832031 C 80.45562744140625 89.54794311523438 75.16184997558594 93.11714935302734 69.26747894287109 95.61025238037109 C 63.16519927978516 98.19129180908203 56.68267822265625 99.5 50 99.5 Z" stroke="none"/>
          <path d="M 50 1 C 43.38460159301758 1 36.96761322021484 2.29541015625 30.92729187011719 4.850250244140625 C 25.09253692626953 7.318145751953125 19.85215759277344 10.85137176513672 15.35177612304688 15.35177612304688 C 10.85137176513672 19.85215759277344 7.318145751953125 25.09253692626953 4.850250244140625 30.92729187011719 C 2.29541015625 36.96761322021484 1 43.38460159301758 1 50 C 1 56.61539840698242 2.29541015625 63.03238677978516 4.850250244140625 69.07270812988281 C 7.318145751953125 74.907470703125 10.85137176513672 80.14784240722656 15.35177612304688 84.64822387695313 C 19.85215759277344 89.14862823486328 25.09253692626953 92.68185424804688 30.92729187011719 95.14974975585938 C 36.96761322021484 97.70458984375 43.38460159301758 99 50 99 C 56.61539840698242 99 63.03238677978516 97.70458984375 69.07270812988281 95.14974975585938 C 74.907470703125 92.68185424804688 80.14784240722656 89.14862823486328 84.64822387695313 84.64822387695313 C 89.14862823486328 80.14784240722656 92.68185424804688 74.907470703125 95.14974975585938 69.07270812988281 C 97.70458984375 63.03238677978516 99 56.61539840698242 99 50 C 99 43.38460159301758 97.70458984375 36.96761322021484 95.14974975585938 30.92729187011719 C 92.68185424804688 25.09253692626953 89.14862823486328 19.85215759277344 84.64822387695313 15.35177612304688 C 80.14784240722656 10.85137176513672 74.907470703125 7.318145751953125 69.07270812988281 4.850250244140625 C 63.03238677978516 2.29541015625 56.61539840698242 1 50 1 M 50 0 C 77.61424255371094 0 100 22.38575744628906 100 50 C 100 77.61424255371094 77.61424255371094 100 50 100 C 22.38575744628906 100 0 77.61424255371094 0 50 C 0 22.38575744628906 22.38575744628906 0 50 0 Z" stroke="none" fill="#707070"/>
        </g>
      </g>
      <g transform="translate(-201 -642)">
        <g id="Path_1-3" data-name="Path 1" transform="translate(201 882)" fill="#4d4d4d">
          <path d="M 50 99.5 C 43.31732177734375 99.5 36.83480072021484 98.19129180908203 30.73251914978027 95.61025238037109 C 24.8381462097168 93.11714935302734 19.54437255859375 89.54794311523438 14.99821376800537 85.00178527832031 C 10.45205307006836 80.45562744140625 6.882853507995605 75.16184997558594 4.38974666595459 69.26747894287109 C 1.808706641197205 63.16519927978516 0.5 56.68267822265625 0.5 50 C 0.5 43.31732177734375 1.808706641197205 36.83480072021484 4.38974666595459 30.73251914978027 C 6.882853507995605 24.8381462097168 10.45205307006836 19.54437255859375 14.99821376800537 14.99821376800537 C 19.54437255859375 10.45205307006836 24.8381462097168 6.882853507995605 30.73251914978027 4.38974666595459 C 36.83480072021484 1.808706641197205 43.31732177734375 0.5 50 0.5 C 56.68267822265625 0.5 63.16519927978516 1.808706641197205 69.26747894287109 4.38974666595459 C 75.16184997558594 6.882853507995605 80.45562744140625 10.45205307006836 85.00178527832031 14.99821376800537 C 89.54794311523438 19.54437255859375 93.11714935302734 24.8381462097168 95.61025238037109 30.73251914978027 C 98.19129180908203 36.83480072021484 99.5 43.31732177734375 99.5 50 C 99.5 56.68267822265625 98.19129180908203 63.16519927978516 95.61025238037109 69.26747894287109 C 93.11714935302734 75.16184997558594 89.54794311523438 80.45562744140625 85.00178527832031 85.00178527832031 C 80.45562744140625 89.54794311523438 75.16184997558594 93.11714935302734 69.26747894287109 95.61025238037109 C 63.16519927978516 98.19129180908203 56.68267822265625 99.5 50 99.5 Z" stroke="none"/>
          <path d="M 50 1 C 43.38460159301758 1 36.96761322021484 2.29541015625 30.92729187011719 4.850250244140625 C 25.09253692626953 7.318145751953125 19.85215759277344 10.85137176513672 15.35177612304688 15.35177612304688 C 10.85137176513672 19.85215759277344 7.318145751953125 25.09253692626953 4.850250244140625 30.92729187011719 C 2.29541015625 36.96761322021484 1 43.38460159301758 1 50 C 1 56.61539840698242 2.29541015625 63.03238677978516 4.850250244140625 69.07270812988281 C 7.318145751953125 74.907470703125 10.85137176513672 80.14784240722656 15.35177612304688 84.64822387695313 C 19.85215759277344 89.14862823486328 25.09253692626953 92.68185424804688 30.92729187011719 95.14974975585938 C 36.96761322021484 97.70458984375 43.38460159301758 99 50 99 C 56.61539840698242 99 63.03238677978516 97.70458984375 69.07270812988281 95.14974975585938 C 74.907470703125 92.68185424804688 80.14784240722656 89.14862823486328 84.64822387695313 84.64822387695313 C 89.14862823486328 80.14784240722656 92.68185424804688 74.907470703125 95.14974975585938 69.07270812988281 C 97.70458984375 63.03238677978516 99 56.61539840698242 99 50 C 99 43.38460159301758 97.70458984375 36.96761322021484 95.14974975585938 30.92729187011719 C 92.68185424804688 25.09253692626953 89.14862823486328 19.85215759277344 84.64822387695313 15.35177612304688 C 80.14784240722656 10.85137176513672 74.907470703125 7.318145751953125 69.07270812988281 4.850250244140625 C 63.03238677978516 2.29541015625 56.61539840698242 1 50 1 M 50 0 C 77.61424255371094 0 100 22.38575744628906 100 50 C 100 77.61424255371094 77.61424255371094 100 50 100 C 22.38575744628906 100 0 77.61424255371094 0 50 C 0 22.38575744628906 22.38575744628906 0 50 0 Z" stroke="none" fill="#707070"/>
        </g>
      </g>
      <g transform="translate(-201 -522)">
        <g id="Path_1-4" data-name="Path 1" transform="translate(201 882)" fill="#4d4d4d">
          <path d="M 50 99.5 C 43.31732177734375 99.5 36.83480072021484 98.19129180908203 30.73251914978027 95.61025238037109 C 24.8381462097168 93.11714935302734 19.54437255859375 89.54794311523438 14.99821376800537 85.00178527832031 C 10.45205307006836 80.45562744140625 6.882853507995605 75.16184997558594 4.38974666595459 69.26747894287109 C 1.808706641197205 63.16519927978516 0.5 56.68267822265625 0.5 50 C 0.5 43.31732177734375 1.808706641197205 36.83480072021484 4.38974666595459 30.73251914978027 C 6.882853507995605 24.8381462097168 10.45205307006836 19.54437255859375 14.99821376800537 14.99821376800537 C 19.54437255859375 10.45205307006836 24.8381462097168 6.882853507995605 30.73251914978027 4.38974666595459 C 36.83480072021484 1.808706641197205 43.31732177734375 0.5 50 0.5 C 56.68267822265625 0.5 63.16519927978516 1.808706641197205 69.26747894287109 4.38974666595459 C 75.16184997558594 6.882853507995605 80.45562744140625 10.45205307006836 85.00178527832031 14.99821376800537 C 89.54794311523438 19.54437255859375 93.11714935302734 24.8381462097168 95.61025238037109 30.73251914978027 C 98.19129180908203 36.83480072021484 99.5 43.31732177734375 99.5 50 C 99.5 56.68267822265625 98.19129180908203 63.16519927978516 95.61025238037109 69.26747894287109 C 93.11714935302734 75.16184997558594 89.54794311523438 80.45562744140625 85.00178527832031 85.00178527832031 C 80.45562744140625 89.54794311523438 75.16184997558594 93.11714935302734 69.26747894287109 95.61025238037109 C 63.16519927978516 98.19129180908203 56.68267822265625 99.5 50 99.5 Z" stroke="none"/>
          <path d="M 50 1 C 43.38460159301758 1 36.96761322021484 2.29541015625 30.92729187011719 4.850250244140625 C 25.09253692626953 7.318145751953125 19.85215759277344 10.85137176513672 15.35177612304688 15.35177612304688 C 10.85137176513672 19.85215759277344 7.318145751953125 25.09253692626953 4.850250244140625 30.92729187011719 C 2.29541015625 36.96761322021484 1 43.38460159301758 1 50 C 1 56.61539840698242 2.29541015625 63.03238677978516 4.850250244140625 69.07270812988281 C 7.318145751953125 74.907470703125 10.85137176513672 80.14784240722656 15.35177612304688 84.64822387695313 C 19.85215759277344 89.14862823486328 25.09253692626953 92.68185424804688 30.92729187011719 95.14974975585938 C 36.96761322021484 97.70458984375 43.38460159301758 99 50 99 C 56.61539840698242 99 63.03238677978516 97.70458984375 69.07270812988281 95.14974975585938 C 74.907470703125 92.68185424804688 80.14784240722656 89.14862823486328 84.64822387695313 84.64822387695313 C 89.14862823486328 80.14784240722656 92.68185424804688 74.907470703125 95.14974975585938 69.07270812988281 C 97.70458984375 63.03238677978516 99 56.61539840698242 99 50 C 99 43.38460159301758 97.70458984375 36.96761322021484 95.14974975585938 30.92729187011719 C 92.68185424804688 25.09253692626953 89.14862823486328 19.85215759277344 84.64822387695313 15.35177612304688 C 80.14784240722656 10.85137176513672 74.907470703125 7.318145751953125 69.07270812988281 4.850250244140625 C 63.03238677978516 2.29541015625 56.61539840698242 1 50 1 M 50 0 C 77.61424255371094 0 100 22.38575744628906 100 50 C 100 77.61424255371094 77.61424255371094 100 50 100 C 22.38575744628906 100 0 77.61424255371094 0 50 C 0 22.38575744628906 22.38575744628906 0 50 0 Z" stroke="none" fill="#707070"/>
        </g>
      </g>
      <g transform="translate(-201 -402)">
        <g id="Path_1-5" data-name="Path 1" transform="translate(201 882)" fill="#4d4d4d">
          <path d="M 50 99.5 C 43.31732177734375 99.5 36.83480072021484 98.19129180908203 30.73251914978027 95.61025238037109 C 24.8381462097168 93.11714935302734 19.54437255859375 89.54794311523438 14.99821376800537 85.00178527832031 C 10.45205307006836 80.45562744140625 6.882853507995605 75.16184997558594 4.38974666595459 69.26747894287109 C 1.808706641197205 63.16519927978516 0.5 56.68267822265625 0.5 50 C 0.5 43.31732177734375 1.808706641197205 36.83480072021484 4.38974666595459 30.73251914978027 C 6.882853507995605 24.8381462097168 10.45205307006836 19.54437255859375 14.99821376800537 14.99821376800537 C 19.54437255859375 10.45205307006836 24.8381462097168 6.882853507995605 30.73251914978027 4.38974666595459 C 36.83480072021484 1.808706641197205 43.31732177734375 0.5 50 0.5 C 56.68267822265625 0.5 63.16519927978516 1.808706641197205 69.26747894287109 4.38974666595459 C 75.16184997558594 6.882853507995605 80.45562744140625 10.45205307006836 85.00178527832031 14.99821376800537 C 89.54794311523438 19.54437255859375 93.11714935302734 24.8381462097168 95.61025238037109 30.73251914978027 C 98.19129180908203 36.83480072021484 99.5 43.31732177734375 99.5 50 C 99.5 56.68267822265625 98.19129180908203 63.16519927978516 95.61025238037109 69.26747894287109 C 93.11714935302734 75.16184997558594 89.54794311523438 80.45562744140625 85.00178527832031 85.00178527832031 C 80.45562744140625 89.54794311523438 75.16184997558594 93.11714935302734 69.26747894287109 95.61025238037109 C 63.16519927978516 98.19129180908203 56.68267822265625 99.5 50 99.5 Z" stroke="none"/>
          <path d="M 50 1 C 43.38460159301758 1 36.96761322021484 2.29541015625 30.92729187011719 4.850250244140625 C 25.09253692626953 7.318145751953125 19.85215759277344 10.85137176513672 15.35177612304688 15.35177612304688 C 10.85137176513672 19.85215759277344 7.318145751953125 25.09253692626953 4.850250244140625 30.92729187011719 C 2.29541015625 36.96761322021484 1 43.38460159301758 1 50 C 1 56.61539840698242 2.29541015625 63.03238677978516 4.850250244140625 69.07270812988281 C 7.318145751953125 74.907470703125 10.85137176513672 80.14784240722656 15.35177612304688 84.64822387695313 C 19.85215759277344 89.14862823486328 25.09253692626953 92.68185424804688 30.92729187011719 95.14974975585938 C 36.96761322021484 97.70458984375 43.38460159301758 99 50 99 C 56.61539840698242 99 63.03238677978516 97.70458984375 69.07270812988281 95.14974975585938 C 74.907470703125 92.68185424804688 80.14784240722656 89.14862823486328 84.64822387695313 84.64822387695313 C 89.14862823486328 80.14784240722656 92.68185424804688 74.907470703125 95.14974975585938 69.07270812988281 C 97.70458984375 63.03238677978516 99 56.61539840698242 99 50 C 99 43.38460159301758 97.70458984375 36.96761322021484 95.14974975585938 30.92729187011719 C 92.68185424804688 25.09253692626953 89.14862823486328 19.85215759277344 84.64822387695313 15.35177612304688 C 80.14784240722656 10.85137176513672 74.907470703125 7.318145751953125 69.07270812988281 4.850250244140625 C 63.03238677978516 2.29541015625 56.61539840698242 1 50 1 M 50 0 C 77.61424255371094 0 100 22.38575744628906 100 50 C 100 77.61424255371094 77.61424255371094 100 50 100 C 22.38575744628906 100 0 77.61424255371094 0 50 C 0 22.38575744628906 22.38575744628906 0 50 0 Z" stroke="none" fill="#707070"/>
        </g>
      </g>
    </g>
    <text id="_91-9536097795" data-name="+91-9536097795" transform="translate(298 1060)" fill="#707070" font-size="50" font-family="Cambria"><tspan x="0" y="0">+91-9536097795</tspan></text>
    <text id="jks9536097795_gmail.com" data-name="jks9536097795@gmail.com" transform="translate(298 1179)" fill="#707070" font-size="50" font-family="Cambria"><tspan x="0" y="0">jks9536097795@gmail.com</tspan></text>
    <text id="_46-C_shastri_nagar_Mathura_India" data-name="46-C shastri nagar Mathura, India" transform="translate(298 1298)" fill="#707070" font-size="50" font-family="Cambria"><tspan x="0" y="0">46-C shastri nagar Mathura, India</tspan></text>
    <text id="https:_github.com_God-Hand" data-name="https://github.com/God-Hand" transform="translate(298 1417)" fill="#707070" font-size="50" font-family="Cambria"><tspan x="0" y="0">https://github.com/God-Hand</tspan></text>
    <text id="https:_www.linkedin.com_in_jitendra-sharma-5624a7155_" data-name="https://www.linkedin.com/
in/jitendra-sharma-5624a7155/" transform="translate(298 1536)" fill="#707070" font-size="50" font-family="Cambria"><tspan x="0" y="0">https://www.linkedin.com/</tspan><tspan x="0" y="50">in/jitendra-sharma-5624a7155/</tspan></text>
    <path id="ic_room_24px" d="M27.5,2C15.061,2,5,11.39,5,23,5,38.75,27.5,62,27.5,62S50,38.75,50,23C50,11.39,39.939,2,27.5,2Zm0,28.5A7.785,7.785,0,0,1,19.464,23,7.785,7.785,0,0,1,27.5,15.5,7.785,7.785,0,0,1,35.536,23,7.785,7.785,0,0,1,27.5,30.5Z" transform="translate(170 1256)" fill="#fbfbfb"/>
    <path id="ic_call_24px" d="M13.056,24.639A42.08,42.08,0,0,0,31.361,42.944l6.111-6.111a2.762,2.762,0,0,1,2.833-.667,31.686,31.686,0,0,0,9.917,1.583A2.786,2.786,0,0,1,53,40.528v9.694A2.786,2.786,0,0,1,50.222,53,47.218,47.218,0,0,1,3,5.778,2.786,2.786,0,0,1,5.778,3H15.5a2.786,2.786,0,0,1,2.778,2.778,31.557,31.557,0,0,0,1.583,9.917,2.788,2.788,0,0,1-.694,2.833Z" transform="translate(172 1025)" fill="#fff"/>
    <path id="Linkedin" d="M47.58,60V40.518c0-4.656-.069-10.634-6.455-10.634-6.476,0-7.446,5.074-7.446,10.287V60H21.257V19.922h11.89v5.491h.162c1.664-3.149,5.712-6.463,11.772-6.463C57.664,18.95,60,27.243,60,38.039V60ZM13.413,60H.972V19.922H13.415V60Zm7.82-40.078h.023ZM0,7.228a7.217,7.217,0,1,1,7.217,7.226A7.231,7.231,0,0,1,0,7.228Z" transform="translate(170 1493)" fill="#fff"/>
    <path id="ic_markunread_24px" d="M56,4H8A5.812,5.812,0,0,0,2.03,9.625L2,43.375A5.839,5.839,0,0,0,8,49H56a5.839,5.839,0,0,0,6-5.625V9.625A5.839,5.839,0,0,0,56,4Zm0,11.25L32,29.312,8,15.25V9.625L32,23.687,56,9.625Z" transform="translate(168 1139)" fill="#fff"/>
    <g id="Path_2" data-name="Path 2" transform="translate(150 1360)" fill="#fff">
      <path d="M 50 99.5 C 43.31732177734375 99.5 36.83480072021484 98.19129180908203 30.73251914978027 95.61025238037109 C 24.8381462097168 93.11714935302734 19.54437255859375 89.54794311523438 14.99821376800537 85.00178527832031 C 10.45205307006836 80.45562744140625 6.882853507995605 75.16184997558594 4.38974666595459 69.26747894287109 C 1.808706641197205 63.16519927978516 0.5 56.68267822265625 0.5 50 C 0.5 43.31732177734375 1.808706641197205 36.83480072021484 4.38974666595459 30.73251914978027 C 6.882853507995605 24.8381462097168 10.45205307006836 19.54437255859375 14.99821376800537 14.99821376800537 C 19.54437255859375 10.45205307006836 24.8381462097168 6.882853507995605 30.73251914978027 4.38974666595459 C 36.83480072021484 1.808706641197205 43.31732177734375 0.5 50 0.5 C 56.68267822265625 0.5 63.16519927978516 1.808706641197205 69.26747894287109 4.38974666595459 C 75.16184997558594 6.882853507995605 80.45562744140625 10.45205307006836 85.00178527832031 14.99821376800537 C 89.54794311523438 19.54437255859375 93.11714935302734 24.8381462097168 95.61025238037109 30.73251914978027 C 98.19129180908203 36.83480072021484 99.5 43.31732177734375 99.5 50 C 99.5 56.68267822265625 98.19129180908203 63.16519927978516 95.61025238037109 69.26747894287109 C 93.11714935302734 75.16184997558594 89.54794311523438 80.45562744140625 85.00178527832031 85.00178527832031 C 80.45562744140625 89.54794311523438 75.16184997558594 93.11714935302734 69.26747894287109 95.61025238037109 C 63.16519927978516 98.19129180908203 56.68267822265625 99.5 50 99.5 Z" stroke="none"/>
      <path d="M 50 1 C 43.38460159301758 1 36.96761322021484 2.29541015625 30.92729187011719 4.850250244140625 C 25.09253692626953 7.318145751953125 19.85215759277344 10.85137176513672 15.35177612304688 15.35177612304688 C 10.85137176513672 19.85215759277344 7.318145751953125 25.09253692626953 4.850250244140625 30.92729187011719 C 2.29541015625 36.96761322021484 1 43.38460159301758 1 50 C 1 56.61539840698242 2.29541015625 63.03238677978516 4.850250244140625 69.07270812988281 C 7.318145751953125 74.907470703125 10.85137176513672 80.14784240722656 15.35177612304688 84.64822387695313 C 19.85215759277344 89.14862823486328 25.09253692626953 92.68185424804688 30.92729187011719 95.14974975585938 C 36.96761322021484 97.70458984375 43.38460159301758 99 50 99 C 56.61539840698242 99 63.03238677978516 97.70458984375 69.07270812988281 95.14974975585938 C 74.907470703125 92.68185424804688 80.14784240722656 89.14862823486328 84.64822387695313 84.64822387695313 C 89.14862823486328 80.14784240722656 92.68185424804688 74.907470703125 95.14974975585938 69.07270812988281 C 97.70458984375 63.03238677978516 99 56.61539840698242 99 50 C 99 43.38460159301758 97.70458984375 36.96761322021484 95.14974975585938 30.92729187011719 C 92.68185424804688 25.09253692626953 89.14862823486328 19.85215759277344 84.64822387695313 15.35177612304688 C 80.14784240722656 10.85137176513672 74.907470703125 7.318145751953125 69.07270812988281 4.850250244140625 C 63.03238677978516 2.29541015625 56.61539840698242 1 50 1 M 50 0 C 77.61424255371094 0 100 22.38575744628906 100 50 C 100 77.61424255371094 77.61424255371094 100 50 100 C 22.38575744628906 100 0 77.61424255371094 0 50 C 0 22.38575744628906 22.38575744628906 0 50 0 Z" stroke="none" fill="#707070"/>
    </g>
    <g id="Github" transform="translate(0 -60)">
      <path id="Github-2" data-name="Github" d="M66.909,99.918h-.455L66,99.457V85.171a15.96,15.96,0,0,0-1.818-8.295C74.636,75.033,86,69.5,86,48.765a24.021,24.021,0,0,0-5-14.747c.909-2.765,1.364-7.834-.909-14.286l-1.364-1.382a4.652,4.652,0,0,0-1.818-.461c-2.727,0-6.818.922-13.636,5.53-3.636-.461-7.727-1.382-12.273-1.382A56.749,56.749,0,0,0,38.273,23.42c-6.364-4.147-10.909-5.069-13.636-5.069-.909,0-1.364.461-1.818.461a2.063,2.063,0,0,0-1.364,1.382c-2.273,6.452-1.818,11.521-.909,14.286a24.021,24.021,0,0,0-5,14.747c0,20.277,11.818,25.806,21.818,28.111A32.026,32.026,0,0,0,36,81.024a8.975,8.975,0,0,1-4.091.922,6.781,6.781,0,0,1-5-1.843l-.455-.461c-.455-.461-.455-.922-.909-.922l-.455-.461-.455-.461c0-.461-3.636-5.991-10-6.452-2.273,0-4.091.922-4.545,2.3-.909,2.3,1.818,4.147,3.182,5.069,0,0,2.727,1.382,4.545,6.452.909,3.226,5,9.217,14.545,9.217h3.182v6.452l-.455.461h0C14.636,93.005,1,73.65,1,51.991,1,23.881,23.273,1.3,51,1.3s50,22.581,50,50.691A50.455,50.455,0,0,1,66.909,99.918Z" transform="translate(149 1416.7)" fill="#4d4d4d" stroke="#4d4d4d" stroke-width="1"/>
    </g>
    <text id="Skills_" data-name="Skills

" transform="translate(154 1697)" fill="#707070" font-size="100" font-family="Cambria-Bold, Cambria" font-weight="700"><tspan x="0" y="95">Skills</tspan></text>
    <line id="Line_5" data-name="Line 5" x2="875.543" y2="3" transform="translate(150 1811)" fill="none" stroke="#707070" stroke-width="2"/>
    <text id="Profile" transform="translate(150 400)" fill="#707070" font-size="80" font-family="Cambria-Bold, Cambria" font-weight="700"><tspan x="0" y="76">Profile</tspan></text>
    <path id="Path_3" data-name="Path 3" d="M0,0,507.129,1.127,900,2" transform="translate(150 499)" fill="none" stroke="#707070" stroke-width="2"/>
    <text id="Cloud_Computing_" data-name="Cloud Computing " transform="translate(154 1831)" fill="#4d4d4d" font-size="50" font-family="Cambria"><tspan x="0" y="48">Cloud Computing </tspan></text>
    <text id="Algorithms" transform="translate(154 1901)" fill="#4d4d4d" font-size="50" font-family="Cambria"><tspan x="0" y="48">Algorithms</tspan></text>
    <text id="Data_Structure" data-name="Data Structure" transform="translate(154 1971)" fill="#4d4d4d" font-size="50" font-family="Cambria"><tspan x="0" y="48">Data Structure</tspan></text>
    <text id="Operating_System" data-name="Operating System" transform="translate(154 2111)" fill="#4d4d4d" font-size="50" font-family="Cambria"><tspan x="0" y="48">Operating System</tspan></text>
    <text id="Networking" transform="translate(154 2041)" fill="#4d4d4d" font-size="50" font-family="Cambria"><tspan x="0" y="48">Networking</tspan></text>
    <g id="Rectangle_1" data-name="Rectangle 1" transform="translate(560 1831)" fill="#111" stroke="#707070" stroke-width="1">
      <rect width="60" height="50" stroke="none"/>
      <rect x="0.5" y="0.5" width="59" height="49" fill="none"/>
    </g>
    <g id="Rectangle_1-2" data-name="Rectangle 1" transform="translate(640 1831)" fill="#444" stroke="#707070" stroke-width="1">
      <rect width="60" height="50" stroke="none"/>
      <rect x="0.5" y="0.5" width="59" height="49" fill="none"/>
    </g>
    <g id="Rectangle_1-3" data-name="Rectangle 1" transform="translate(720 1831)" fill="#777" stroke="#707070" stroke-width="1">
      <rect width="60" height="50" stroke="none"/>
      <rect x="0.5" y="0.5" width="59" height="49" fill="none"/>
    </g>
    <g id="Rectangle_1-4" data-name="Rectangle 1" transform="translate(800 1831)" fill="#aaa" stroke="#707070" stroke-width="1">
      <rect width="60" height="50" stroke="none"/>
      <rect x="0.5" y="0.5" width="59" height="49" fill="none"/>
    </g>
    <g id="Rectangle_1-5" data-name="Rectangle 1" transform="translate(880 1831)" fill="#eee" stroke="#707070" stroke-width="1">
      <rect width="60" height="50" stroke="none"/>
      <rect x="0.5" y="0.5" width="59" height="49" fill="none"/>
    </g>
    <g id="Rectangle_1-6" data-name="Rectangle 1" transform="translate(960 1831)" fill="#fff" stroke="#707070" stroke-width="1">
      <rect width="60" height="50" stroke="none"/>
      <rect x="0.5" y="0.5" width="59" height="49" fill="none"/>
    </g>
    <g id="Rectangle_1-7" data-name="Rectangle 1" transform="translate(560 1901)" fill="#111" stroke="#707070" stroke-width="1">
      <rect width="60" height="50" stroke="none"/>
      <rect x="0.5" y="0.5" width="59" height="49" fill="none"/>
    </g>
    <g id="Rectangle_1-8" data-name="Rectangle 1" transform="translate(640 1901)" fill="#444" stroke="#707070" stroke-width="1">
      <rect width="60" height="50" stroke="none"/>
      <rect x="0.5" y="0.5" width="59" height="49" fill="none"/>
    </g>
    <g id="Rectangle_1-9" data-name="Rectangle 1" transform="translate(720 1901)" fill="#777" stroke="#707070" stroke-width="1">
      <rect width="60" height="50" stroke="none"/>
      <rect x="0.5" y="0.5" width="59" height="49" fill="none"/>
    </g>
    <g id="Rectangle_1-10" data-name="Rectangle 1" transform="translate(800 1901)" fill="#aaa" stroke="#707070" stroke-width="1">
      <rect width="60" height="50" stroke="none"/>
      <rect x="0.5" y="0.5" width="59" height="49" fill="none"/>
    </g>
    <g id="Rectangle_1-11" data-name="Rectangle 1" transform="translate(880 1901)" fill="#eee" stroke="#707070" stroke-width="1">
      <rect width="60" height="50" stroke="none"/>
      <rect x="0.5" y="0.5" width="59" height="49" fill="none"/>
    </g>
    <g id="Rectangle_1-12" data-name="Rectangle 1" transform="translate(960 1901)" fill="#fff" stroke="#707070" stroke-width="1">
      <rect width="60" height="50" stroke="none"/>
      <rect x="0.5" y="0.5" width="59" height="49" fill="none"/>
    </g>
    <g id="Rectangle_1-13" data-name="Rectangle 1" transform="translate(560 1971)" fill="#111" stroke="#707070" stroke-width="1">
      <rect width="60" height="50" stroke="none"/>
      <rect x="0.5" y="0.5" width="59" height="49" fill="none"/>
    </g>
    <g id="Rectangle_1-14" data-name="Rectangle 1" transform="translate(640 1971)" fill="#444" stroke="#707070" stroke-width="1">
      <rect width="60" height="50" stroke="none"/>
      <rect x="0.5" y="0.5" width="59" height="49" fill="none"/>
    </g>
    <g id="Rectangle_1-15" data-name="Rectangle 1" transform="translate(720 1971)" fill="#777" stroke="#707070" stroke-width="1">
      <rect width="60" height="50" stroke="none"/>
      <rect x="0.5" y="0.5" width="59" height="49" fill="none"/>
    </g>
    <g id="Rectangle_1-16" data-name="Rectangle 1" transform="translate(800 1971)" fill="#aaa" stroke="#707070" stroke-width="1">
      <rect width="60" height="50" stroke="none"/>
      <rect x="0.5" y="0.5" width="59" height="49" fill="none"/>
    </g>
    <g id="Rectangle_1-17" data-name="Rectangle 1" transform="translate(880 1971)" fill="#eee" stroke="#707070" stroke-width="1">
      <rect width="60" height="50" stroke="none"/>
      <rect x="0.5" y="0.5" width="59" height="49" fill="none"/>
    </g>
    <g id="Rectangle_1-18" data-name="Rectangle 1" transform="translate(960 1971)" fill="#fff" stroke="#707070" stroke-width="1">
      <rect width="60" height="50" stroke="none"/>
      <rect x="0.5" y="0.5" width="59" height="49" fill="none"/>
    </g>
    <g id="Rectangle_1-19" data-name="Rectangle 1" transform="translate(560 2111)" fill="#444" stroke="#707070" stroke-width="1">
      <rect width="60" height="50" stroke="none"/>
      <rect x="0.5" y="0.5" width="59" height="49" fill="none"/>
    </g>
    <g id="Rectangle_1-20" data-name="Rectangle 1" transform="translate(640 2111)" fill="#777" stroke="#707070" stroke-width="1">
      <rect width="60" height="50" stroke="none"/>
      <rect x="0.5" y="0.5" width="59" height="49" fill="none"/>
    </g>
    <g id="Rectangle_1-21" data-name="Rectangle 1" transform="translate(720 2111)" fill="#aaa" stroke="#707070" stroke-width="1">
      <rect width="60" height="50" stroke="none"/>
      <rect x="0.5" y="0.5" width="59" height="49" fill="none"/>
    </g>
    <g id="Rectangle_1-22" data-name="Rectangle 1" transform="translate(800 2111)" fill="#eee" stroke="#707070" stroke-width="1">
      <rect width="60" height="50" stroke="none"/>
      <rect x="0.5" y="0.5" width="59" height="49" fill="none"/>
    </g>
    <g id="Rectangle_1-23" data-name="Rectangle 1" transform="translate(880 2111)" fill="#fff" stroke="#707070" stroke-width="1">
      <rect width="60" height="50" stroke="none"/>
      <rect x="0.5" y="0.5" width="59" height="49" fill="none"/>
    </g>
    <g id="Rectangle_1-24" data-name="Rectangle 1" transform="translate(960 2111)" fill="#fff" stroke="#707070" stroke-width="1">
      <rect width="60" height="50" stroke="none"/>
      <rect x="0.5" y="0.5" width="59" height="49" fill="none"/>
    </g>
    <g id="Rectangle_1-25" data-name="Rectangle 1" transform="translate(560 2041)" fill="#444" stroke="#707070" stroke-width="1">
      <rect width="60" height="50" stroke="none"/>
      <rect x="0.5" y="0.5" width="59" height="49" fill="none"/>
    </g>
    <g id="Rectangle_1-26" data-name="Rectangle 1" transform="translate(640 2041)" fill="#777" stroke="#707070" stroke-width="1">
      <rect width="60" height="50" stroke="none"/>
      <rect x="0.5" y="0.5" width="59" height="49" fill="none"/>
    </g>
    <g id="Rectangle_1-27" data-name="Rectangle 1" transform="translate(720 2041)" fill="#aaa" stroke="#707070" stroke-width="1">
      <rect width="60" height="50" stroke="none"/>
      <rect x="0.5" y="0.5" width="59" height="49" fill="none"/>
    </g>
    <g id="Rectangle_1-28" data-name="Rectangle 1" transform="translate(800 2041)" fill="#eee" stroke="#707070" stroke-width="1">
      <rect width="60" height="50" stroke="none"/>
      <rect x="0.5" y="0.5" width="59" height="49" fill="none"/>
    </g>
    <g id="Rectangle_1-29" data-name="Rectangle 1" transform="translate(880 2041)" fill="#fff" stroke="#707070" stroke-width="1">
      <rect width="60" height="50" stroke="none"/>
      <rect x="0.5" y="0.5" width="59" height="49" fill="none"/>
    </g>
    <g id="Rectangle_1-30" data-name="Rectangle 1" transform="translate(960 2041)" fill="#fff" stroke="#707070" stroke-width="1">
      <rect width="60" height="50" stroke="none"/>
      <rect x="0.5" y="0.5" width="59" height="49" fill="none"/>
    </g>
    <text id="Languages_" data-name="Languages



" transform="translate(154 2279)" fill="#707070" font-size="100" font-family="Cambria-Bold, Cambria" font-weight="700"><tspan x="0" y="95">Languages</tspan></text>
    <line id="Line_7" data-name="Line 7" x2="875.543" y2="3" transform="translate(150 2399)" fill="none" stroke="#707070" stroke-width="2"/>
    <text id="C_" data-name="C++" transform="translate(154 2419)" fill="#4d4d4d" font-size="50" font-family="Cambria"><tspan x="0" y="48">C++</tspan></text>
    <text id="Python" transform="translate(154 2489)" fill="#4d4d4d" font-size="50" font-family="Cambria"><tspan x="0" y="48">Python</tspan></text>
    <text id="PHP" transform="translate(154 2629)" fill="#4d4d4d" font-size="50" font-family="Cambria"><tspan x="0" y="48">PHP</tspan></text>
    <text id="C" transform="translate(154 2559)" fill="#4d4d4d" font-size="50" font-family="Cambria"><tspan x="0" y="48">C</tspan></text>
    <text id="JavaScript" transform="translate(154 2699)" fill="#4d4d4d" font-size="50" font-family="Cambria"><tspan x="0" y="48">JavaScript</tspan></text>
    <g id="Rectangle_2" data-name="Rectangle 2" transform="translate(560 2419)" fill="#111" stroke="#707070" stroke-width="1">
      <rect width="60" height="50" stroke="none"/>
      <rect x="0.5" y="0.5" width="59" height="49" fill="none"/>
    </g>
    <g id="Rectangle_3" data-name="Rectangle 3" transform="translate(640 2419)" fill="#444" stroke="#707070" stroke-width="1">
      <rect width="60" height="50" stroke="none"/>
      <rect x="0.5" y="0.5" width="59" height="49" fill="none"/>
    </g>
    <g id="Rectangle_4" data-name="Rectangle 4" transform="translate(720 2419)" fill="#777" stroke="#707070" stroke-width="1">
      <rect width="60" height="50" stroke="none"/>
      <rect x="0.5" y="0.5" width="59" height="49" fill="none"/>
    </g>
    <g id="Rectangle_5" data-name="Rectangle 5" transform="translate(800 2419)" fill="#aaa" stroke="#707070" stroke-width="1">
      <rect width="60" height="50" stroke="none"/>
      <rect x="0.5" y="0.5" width="59" height="49" fill="none"/>
    </g>
    <g id="Rectangle_6" data-name="Rectangle 6" transform="translate(880 2419)" fill="#eee" stroke="#707070" stroke-width="1">
      <rect width="60" height="50" stroke="none"/>
      <rect x="0.5" y="0.5" width="59" height="49" fill="none"/>
    </g>
    <g id="Rectangle_7" data-name="Rectangle 7" transform="translate(560 2489)" fill="#111" stroke="#707070" stroke-width="1">
      <rect width="60" height="50" stroke="none"/>
      <rect x="0.5" y="0.5" width="59" height="49" fill="none"/>
    </g>
    <g id="Rectangle_8" data-name="Rectangle 8" transform="translate(640 2489)" fill="#444" stroke="#707070" stroke-width="1">
      <rect width="60" height="50" stroke="none"/>
      <rect x="0.5" y="0.5" width="59" height="49" fill="none"/>
    </g>
    <g id="Rectangle_9" data-name="Rectangle 9" transform="translate(720 2489)" fill="#777" stroke="#707070" stroke-width="1">
      <rect width="60" height="50" stroke="none"/>
      <rect x="0.5" y="0.5" width="59" height="49" fill="none"/>
    </g>
    <g id="Rectangle_10" data-name="Rectangle 10" transform="translate(800 2489)" fill="#aaa" stroke="#707070" stroke-width="1">
      <rect width="60" height="50" stroke="none"/>
      <rect x="0.5" y="0.5" width="59" height="49" fill="none"/>
    </g>
    <g id="Rectangle_11" data-name="Rectangle 11" transform="translate(880 2489)" fill="#eee" stroke="#707070" stroke-width="1">
      <rect width="60" height="50" stroke="none"/>
      <rect x="0.5" y="0.5" width="59" height="49" fill="none"/>
    </g>
    <g id="Rectangle_12" data-name="Rectangle 12" transform="translate(560 2629)" fill="#111" stroke="#707070" stroke-width="1">
      <rect width="60" height="50" stroke="none"/>
      <rect x="0.5" y="0.5" width="59" height="49" fill="none"/>
    </g>
    <g id="Rectangle_13" data-name="Rectangle 13" transform="translate(640 2629)" fill="#444" stroke="#707070" stroke-width="1">
      <rect width="60" height="50" stroke="none"/>
      <rect x="0.5" y="0.5" width="59" height="49" fill="none"/>
    </g>
    <g id="Rectangle_14" data-name="Rectangle 14" transform="translate(720 2629)" fill="#777" stroke="#707070" stroke-width="1">
      <rect width="60" height="50" stroke="none"/>
      <rect x="0.5" y="0.5" width="59" height="49" fill="none"/>
    </g>
    <g id="Rectangle_15" data-name="Rectangle 15" transform="translate(800 2629)" fill="#aaa" stroke="#707070" stroke-width="1">
      <rect width="60" height="50" stroke="none"/>
      <rect x="0.5" y="0.5" width="59" height="49" fill="none"/>
    </g>
    <g id="Rectangle_16" data-name="Rectangle 16" transform="translate(880 2629)" fill="#eee" stroke="#707070" stroke-width="1">
      <rect width="60" height="50" stroke="none"/>
      <rect x="0.5" y="0.5" width="59" height="49" fill="none"/>
    </g>
    <g id="Rectangle_17" data-name="Rectangle 17" transform="translate(560 2559)" fill="#444" stroke="#707070" stroke-width="1">
      <rect width="60" height="50" stroke="none"/>
      <rect x="0.5" y="0.5" width="59" height="49" fill="none"/>
    </g>
    <g id="Rectangle_18" data-name="Rectangle 18" transform="translate(640 2559)" fill="#777" stroke="#707070" stroke-width="1">
      <rect width="60" height="50" stroke="none"/>
      <rect x="0.5" y="0.5" width="59" height="49" fill="none"/>
    </g>
    <g id="Rectangle_19" data-name="Rectangle 19" transform="translate(720 2559)" fill="#aaa" stroke="#707070" stroke-width="1">
      <rect width="60" height="50" stroke="none"/>
      <rect x="0.5" y="0.5" width="59" height="49" fill="none"/>
    </g>
    <g id="Rectangle_20" data-name="Rectangle 20" transform="translate(800 2559)" fill="#eee" stroke="#707070" stroke-width="1">
      <rect width="60" height="50" stroke="none"/>
      <rect x="0.5" y="0.5" width="59" height="49" fill="none"/>
    </g>
    <g id="Rectangle_21" data-name="Rectangle 21" transform="translate(880 2559)" fill="#fff" stroke="#707070" stroke-width="1">
      <rect width="60" height="50" stroke="none"/>
      <rect x="0.5" y="0.5" width="59" height="49" fill="none"/>
    </g>
    <g id="Rectangle_22" data-name="Rectangle 22" transform="translate(560 2699)" fill="#444" stroke="#707070" stroke-width="1">
      <rect width="60" height="50" stroke="none"/>
      <rect x="0.5" y="0.5" width="59" height="49" fill="none"/>
    </g>
    <g id="Rectangle_23" data-name="Rectangle 23" transform="translate(640 2699)" fill="#777" stroke="#707070" stroke-width="1">
      <rect width="60" height="50" stroke="none"/>
      <rect x="0.5" y="0.5" width="59" height="49" fill="none"/>
    </g>
    <g id="Rectangle_24" data-name="Rectangle 24" transform="translate(720 2699)" fill="#aaa" stroke="#707070" stroke-width="1">
      <rect width="60" height="50" stroke="none"/>
      <rect x="0.5" y="0.5" width="59" height="49" fill="none"/>
    </g>
    <g id="Rectangle_25" data-name="Rectangle 25" transform="translate(800 2699)" fill="#eee" stroke="#707070" stroke-width="1">
      <rect width="60" height="50" stroke="none"/>
      <rect x="0.5" y="0.5" width="59" height="49" fill="none"/>
    </g>
    <g id="Rectangle_26" data-name="Rectangle 26" transform="translate(880 2699)" fill="#fff" stroke="#707070" stroke-width="1">
      <rect width="60" height="50" stroke="none"/>
      <rect x="0.5" y="0.5" width="59" height="49" fill="none"/>
    </g>
    <text id="Java" transform="translate(154 2769)" fill="#4d4d4d" font-size="50" font-family="Cambria"><tspan x="0" y="48">Java</tspan></text>
    <g id="Rectangle_28" data-name="Rectangle 28" transform="translate(720 2769)" fill="#aaa" stroke="#707070" stroke-width="1">
      <rect width="60" height="50" stroke="none"/>
      <rect x="0.5" y="0.5" width="59" height="49" fill="none"/>
    </g>
    <g id="Rectangle_29" data-name="Rectangle 29" transform="translate(640 2769)" fill="#777" stroke="#707070" stroke-width="1">
      <rect width="60" height="50" stroke="none"/>
      <rect x="0.5" y="0.5" width="59" height="49" fill="none"/>
    </g>
    <g id="Rectangle_30" data-name="Rectangle 30" transform="translate(560 2769)" fill="#444" stroke="#707070" stroke-width="1">
      <rect width="60" height="50" stroke="none"/>
      <rect x="0.5" y="0.5" width="59" height="49" fill="none"/>
    </g>
    <g id="Rectangle_31" data-name="Rectangle 31" transform="translate(800 2769)" fill="#eee" stroke="#707070" stroke-width="1">
      <rect width="60" height="50" stroke="none"/>
      <rect x="0.5" y="0.5" width="59" height="49" fill="none"/>
    </g>
    <g id="Rectangle_32" data-name="Rectangle 32" transform="translate(880 2769)" fill="#fff" stroke="#707070" stroke-width="1">
      <rect width="60" height="50" stroke="none"/>
      <rect x="0.5" y="0.5" width="59" height="49" fill="none"/>
    </g>
    <g id="Rectangle_33" data-name="Rectangle 33" transform="translate(960 2419)" fill="#fff" stroke="#707070" stroke-width="1">
      <rect width="60" height="50" stroke="none"/>
      <rect x="0.5" y="0.5" width="59" height="49" fill="none"/>
    </g>
    <g id="Rectangle_33-2" data-name="Rectangle 33" transform="translate(960 2489)" fill="#fff" stroke="#707070" stroke-width="1">
      <rect width="60" height="50" stroke="none"/>
      <rect x="0.5" y="0.5" width="59" height="49" fill="none"/>
    </g>
    <g id="Rectangle_33-3" data-name="Rectangle 33" transform="translate(960 2629)" fill="#fff" stroke="#707070" stroke-width="1">
      <rect width="60" height="50" stroke="none"/>
      <rect x="0.5" y="0.5" width="59" height="49" fill="none"/>
    </g>
    <g id="Rectangle_33-4" data-name="Rectangle 33" transform="translate(960 2559)" fill="#fff" stroke="#707070" stroke-width="1">
      <rect width="60" height="50" stroke="none"/>
      <rect x="0.5" y="0.5" width="59" height="49" fill="none"/>
    </g>
    <g id="Rectangle_33-5" data-name="Rectangle 33" transform="translate(960 2699)" fill="#fff" stroke="#707070" stroke-width="1">
      <rect width="60" height="50" stroke="none"/>
      <rect x="0.5" y="0.5" width="59" height="49" fill="none"/>
    </g>
    <g id="Rectangle_33-6" data-name="Rectangle 33" transform="translate(960 2769)" fill="#fff" stroke="#707070" stroke-width="1">
      <rect width="60" height="50" stroke="none"/>
      <rect x="0.5" y="0.5" width="59" height="49" fill="none"/>
    </g>
    <text id="Used_Tools_" data-name="Used Tools
" transform="translate(154 2914)" fill="#707070" font-size="100" font-family="Cambria-Bold, Cambria" font-weight="700"><tspan x="0" y="95">Used Tools</tspan></text>
    <line id="Line_8" data-name="Line 8" x2="875.543" y2="3" transform="translate(150 3032)" fill="none" stroke="#707070" stroke-width="2"/>
    <g id="Group_8" data-name="Group 8" transform="translate(150 3055)">
      <g id="Ellipse_1" data-name="Ellipse 1" transform="translate(59.918 0) rotate(87)" fill="#4d4d4d" stroke="#707070" stroke-width="1">
        <circle cx="30" cy="30" r="30" stroke="none"/>
        <circle cx="30" cy="30" r="29.5" fill="none"/>
      </g>
      <text id="openstack_queens_version_" data-name="openstack (queens version)" transform="translate(101.529 47.529)" fill="#707070" font-size="49" font-family="Cambria-Bold, Cambria" font-weight="700"><tspan x="0" y="0">openstack (queens version)</tspan></text>
    </g>
    <g id="Group_9" data-name="Group 9" transform="translate(150 3139)">
      <g id="Ellipse_1-2" data-name="Ellipse 1" transform="translate(59.918 0) rotate(87)" fill="#4d4d4d" stroke="#707070" stroke-width="1">
        <ellipse cx="30" cy="30" rx="30" ry="30" stroke="none"/>
        <ellipse cx="30" cy="30" rx="29.5" ry="29.5" fill="none"/>
      </g>
      <text id="VMware_Workstation" data-name="VMware Workstation" transform="translate(103.529 49.529)" fill="#707070" font-size="50" font-family="Cambria-Bold, Cambria" font-weight="700"><tspan x="0" y="0">VMware Workstation</tspan></text>
    </g>
    <g id="Group_10" data-name="Group 10" transform="translate(150 3223)">
      <g id="Ellipse_1-3" data-name="Ellipse 1" transform="translate(59.918 0) rotate(87)" fill="#4d4d4d" stroke="#707070" stroke-width="1">
        <ellipse cx="30" cy="30" rx="30" ry="30" stroke="none"/>
        <ellipse cx="30" cy="30" rx="29.5" ry="29.5" fill="none"/>
      </g>
      <text id="Packet_Tracer" data-name="Packet Tracer" transform="translate(103.529 49.529)" fill="#707070" font-size="50" font-family="Cambria-Bold, Cambria" font-weight="700"><tspan x="0" y="0">Packet Tracer</tspan></text>
    </g>
    <text id="To_pursue_a_challenging_career_and_be_a_part_of_progressive_organization_that_gives_me_a_scope_to_enhance_my_knowledge_and_utilizing_my_skills_towards_the_growth_of_the_organization." data-name="To pursue a challenging career and be a part of progressive  organization that gives me a scope to enhance my knowledge and utilizing my skills towards the growth of the organization." transform="translate(150 500)" fill="#707070" font-size="50" font-family="Cambria"><tspan x="0" y="48">To pursue a challenging career and be a </tspan><tspan x="0" y="108" xml:space="preserve">part of progressive  organization that </tspan><tspan x="0" y="168">gives me a scope to enhance my </tspan><tspan x="0" y="228">knowledge and utilizing my skills towards </tspan><tspan x="0" y="288">the growth of the organization.</tspan></text>
    <text id="Education" transform="translate(1200 150)" fill="#707070" font-size="80" font-family="Cambria-Bold, Cambria" font-weight="700"><tspan x="0" y="76">Education</tspan></text>
    <line id="Line_9" data-name="Line 9" x2="1150" y2="2" transform="translate(1200 250)" fill="none" stroke="#707070" stroke-width="2"/>
    <line id="Line_10" data-name="Line 10" y2="406.091" transform="translate(1200 348)" fill="none" stroke="#4d4d4d" stroke-width="5"/>
    <g id="Ellipse_2" data-name="Ellipse 2" transform="translate(1190 338)" fill="#4d4d4d" stroke="#4d4d4d" stroke-width="1">
      <circle cx="10" cy="10" r="10" stroke="none"/>
      <circle cx="10" cy="10" r="9.5" fill="none"/>
    </g>
    <g id="Ellipse_3" data-name="Ellipse 3" transform="translate(1190 744.091)" fill="#4d4d4d" stroke="#4d4d4d" stroke-width="1">
      <circle cx="10" cy="10" r="10" stroke="none"/>
      <circle cx="10" cy="10" r="9.5" fill="none"/>
    </g>
    <g id="Rectangle_34" data-name="Rectangle 34" transform="translate(1300 300)" fill="#fff" stroke="#707070" stroke-width="1">
      <rect width="1050" height="120" rx="27" stroke="none"/>
      <rect x="0.5" y="0.5" width="1049" height="119" rx="26.5" fill="none"/>
    </g>
    <text id="B.tech_GLA_University_-_8.17_CPI_Current_" data-name="B.tech (GLA University) - 8.17 CPI (Current)" transform="translate(1346 348)" fill="#707070" font-size="50" font-family="Cambria-Bold, Cambria" font-weight="700"><tspan x="0" y="0">B.tech (GLA University) - 8.17 CPI (Current)</tspan></text>
    <text id="Shriji_baba_Saraswati_vidya_mandir_Mathura" data-name="Shriji baba Saraswati vidya mandir, Mathura" transform="translate(1346 391)" fill="#707070" font-size="45" font-family="Cambria"><tspan x="0" y="0">Shriji baba Saraswati vidya mandir, Mathura</tspan></text>
    <g id="Rectangle_35" data-name="Rectangle 35" transform="translate(1350 494.545)" fill="#fff" stroke="#707070" stroke-width="1">
      <rect width="1000" height="120" rx="27" stroke="none"/>
      <rect x="0.5" y="0.5" width="999" height="119" rx="26.5" fill="none"/>
    </g>
    <text id="_12th_CBSE_-_89_" data-name="12th (CBSE) - 89%" transform="translate(1396 538.812)" fill="#707070" font-size="50" font-family="Cambria-Bold, Cambria" font-weight="700"><tspan x="0" y="0">12th (CBSE) - 89%</tspan></text>
    <text id="Shriji_baba_Saraswati_vidya_mandir_Mathura-2" data-name="Shriji baba Saraswati vidya mandir, Mathura" transform="translate(1396 587.294)" fill="#707070" font-size="45" font-family="Cambria"><tspan x="0" y="0">Shriji baba Saraswati vidya mandir, Mathura</tspan></text>
    <g id="Rectangle_36" data-name="Rectangle 36" transform="translate(1250 689.091)" fill="#fff" stroke="#707070" stroke-width="1">
      <rect width="1000" height="120" rx="27" stroke="none"/>
      <rect x="0.5" y="0.5" width="999" height="119" rx="26.5" fill="none"/>
    </g>
    <text id="_10th_CBSE_-_9.2_CGPA" data-name="10th (CBSE) - 9.2 CGPA" transform="translate(1296 737.091)" fill="#707070" font-size="50" font-family="Cambria-Bold, Cambria" font-weight="700"><tspan x="0" y="0">10th (CBSE) - 9.2 CGPA</tspan></text>
    <text id="Shriji_baba_Saraswati_vidya_mandir_Mathura-3" data-name="Shriji baba Saraswati vidya mandir, Mathura" transform="translate(1296 780.091)" fill="#707070" font-size="45" font-family="Cambria"><tspan x="0" y="0">Shriji baba Saraswati vidya mandir, Mathura</tspan></text>
    <g id="Ellipse_4" data-name="Ellipse 4" transform="translate(1192 340)" fill="#fff" stroke="#707070" stroke-width="1">
      <circle cx="8" cy="8" r="8" stroke="none"/>
      <circle cx="8" cy="8" r="7.5" fill="none"/>
    </g>
    <text id="Certificates" transform="translate(1200 878.788)" fill="#707070" font-size="80" font-family="Cambria-Bold, Cambria" font-weight="700"><tspan x="0" y="76">Certificates</tspan></text>
    <line id="Line_11" data-name="Line 11" x2="1150" y2="2" transform="translate(1200 978.788)" fill="none" stroke="#707070" stroke-width="2"/>
    <line id="Line_12" data-name="Line 12" y2="853" transform="translate(1200 1059)" fill="none" stroke="#4d4d4d" stroke-width="5"/>
    <g id="Ellipse_5" data-name="Ellipse 5" transform="translate(1190 1058)" fill="#4d4d4d" stroke="#4d4d4d" stroke-width="1">
      <circle cx="10" cy="10" r="10" stroke="none"/>
      <circle cx="10" cy="10" r="9.5" fill="none"/>
    </g>
    <g id="Ellipse_6" data-name="Ellipse 6" transform="translate(1190 1901)" fill="#4d4d4d" stroke="#4d4d4d" stroke-width="1">
      <circle cx="10" cy="10" r="10" stroke="none"/>
      <circle cx="10" cy="10" r="9.5" fill="none"/>
    </g>
    <g id="Rectangle_37" data-name="Rectangle 37" transform="translate(1250 1033.788)" fill="#fff" stroke="#707070" stroke-width="1">
      <rect width="1100" height="130" rx="46" stroke="none"/>
      <rect x="0.5" y="0.5" width="1099" height="129" rx="45.5" fill="none"/>
    </g>
    <text id="Cloud_Computing_With_Big_Data_And_Hadoop" data-name="Cloud Computing With Big Data And Hadoop" transform="translate(1280 1085.788)" fill="#707070" font-size="50" font-family="Cambria-Bold, Cambria" font-weight="700"><tspan x="0" y="0">Cloud Computing With Big Data And Hadoop</tspan></text>
    <text id="Robodapians_TRYST.2018_IIT_Delhi_" data-name="Robodapians (TRYST.2018 IIT Delhi)" transform="translate(1280 1135.413)" fill="#707070" font-size="45" font-family="Cambria"><tspan x="0" y="0">Robodapians (TRYST.2018 IIT Delhi)</tspan></text>
    <g id="Path_4" data-name="Path 4" transform="translate(1298 1233.771)" fill="#fff">
      <path d="M 1006.090942382813 129.5 L 944.8430786132813 129.5 L 43.90906524658203 129.5 C 38.05160140991211 129.5 32.36933517456055 128.2981262207031 27.02026748657227 125.9280014038086 C 21.85173416137695 123.6377334594727 17.2094669342041 120.3586654663086 13.22239971160889 116.1816024780273 C 9.233733177185059 112.0030670166016 6.10200023651123 107.1368026733398 3.914266586303711 101.718132019043 C 1.648666620254517 96.10666656494141 0.5 90.14546966552734 0.5 84 L 0.5 46 C 0.5 39.85453414916992 1.648666620254517 33.89333343505859 3.914266586303711 28.2818660736084 C 6.10200023651123 22.86319923400879 9.233733177185059 17.99693298339844 13.22239971160889 13.81840038299561 C 17.2094669342041 9.64133358001709 21.85173416137695 6.362266540527344 27.02026748657227 4.072000026702881 C 32.36933517456055 1.701866626739502 38.05160140991211 0.5 43.90906524658203 0.5 L 1006.090942382813 0.5 C 1011.948425292969 0.5 1017.630676269531 1.701866626739502 1022.979858398438 4.072000026702881 C 1028.148315429688 6.362266540527344 1032.79052734375 9.64133358001709 1036.777709960938 13.81840038299561 C 1040.766357421875 17.99693298339844 1043.89794921875 22.86319923400879 1046.085693359375 28.2818660736084 C 1048.351318359375 33.89333343505859 1049.5 39.85453414916992 1049.5 46 L 1049.5 84 C 1049.5 90.14546966552734 1048.351318359375 96.10666656494141 1046.085693359375 101.718132019043 C 1043.89794921875 107.1368026733398 1040.766357421875 112.0030670166016 1036.777709960938 116.1816024780273 C 1032.79052734375 120.3586654663086 1028.148315429688 123.6377334594727 1022.979858398438 125.9280014038086 C 1017.630676269531 128.2981262207031 1011.948425292969 129.5 1006.090942382813 129.5 Z" stroke="none"/>
      <path d="M 43.9090576171875 1 C 38.12188720703125 1 32.50775146484375 2.187332153320313 27.2227783203125 4.529197692871094 C 22.1143798828125 6.79266357421875 17.5257568359375 10.03413391113281 13.583984375 14.16359710693359 C 9.63916015625 18.2962646484375 6.5418701171875 23.10933685302734 4.3778076171875 28.46907043457031 C 2.136474609375 34.02066802978516 1 39.91893005371094 1 46 L 1 84 C 1 90.08106994628906 2.136474609375 95.97933197021484 4.3778076171875 101.5309295654297 C 6.5418701171875 106.8906707763672 9.63916015625 111.7037353515625 13.583984375 115.8364028930664 C 17.5257568359375 119.9658660888672 22.1143798828125 123.2073364257813 27.2227783203125 125.4708023071289 C 32.50775146484375 127.8126678466797 38.12188720703125 129 43.9090576171875 129 L 944.8430786132813 129 L 1006.0908203125 129 C 1011.878112792969 129 1017.492248535156 127.8126678466797 1022.777221679688 125.4708023071289 C 1027.885620117188 123.2073364257813 1032.474243164063 119.9658660888672 1036.416015625 115.8364028930664 C 1040.36083984375 111.7037353515625 1043.458129882813 106.8906707763672 1045.622192382813 101.5309295654297 C 1047.863525390625 95.97933197021484 1049 90.08106994628906 1049 84 L 1049 46 C 1049 39.91893005371094 1047.863525390625 34.02066802978516 1045.622192382813 28.46907043457031 C 1043.458129882813 23.10933685302734 1040.36083984375 18.2962646484375 1036.416015625 14.16359710693359 C 1032.474243164063 10.03413391113281 1027.885620117188 6.79266357421875 1022.777221679688 4.529197692871094 C 1017.492248535156 2.187332153320313 1011.878112792969 1 1006.0908203125 1 L 43.9090576171875 1 M 43.9090576171875 0 L 1006.0908203125 0 C 1030.34130859375 0 1050 20.59493255615234 1050 46 L 1050 84 C 1050 109.4050674438477 1030.34130859375 130 1006.0908203125 130 L 944.8430786132813 130 L 43.9090576171875 130 C 19.6588134765625 130 0 109.4050674438477 0 84 L 0 46 C 0 20.59493255615234 19.6588134765625 0 43.9090576171875 0 Z" stroke="none" fill="#707070"/>
    </g>
    <text id="AWS_Certified_Solutions_Architect_Associate_" data-name="AWS Certified Solutions Architect Associate " transform="translate(1330 1283.867)" fill="#707070" font-size="50" font-family="Cambria-Bold, Cambria" font-weight="700"><tspan x="0" y="0">AWS Certified Solutions Architect Associate </tspan></text>
    <text id="_Udemy_ACloudGuru_" data-name=" Udemy (ACloudGuru)" transform="translate(1330 1341.959)" fill="#707070" font-size="45" font-family="Cambria"><tspan x="0" y="0" xml:space="preserve"> Udemy (ACloudGuru)</tspan></text>
    <g id="Rectangle_38" data-name="Rectangle 38" transform="translate(1250 1435.733)" fill="#fff" stroke="#707070" stroke-width="1">
      <rect width="1000" height="130" rx="46" stroke="none"/>
      <rect x="0.5" y="0.5" width="999" height="129" rx="45.5" fill="none"/>
    </g>
    <text id="Programming_with_Python" data-name="Programming with Python" transform="translate(1280 1483.565)" fill="#707070" font-size="50" font-family="Cambria-Bold, Cambria" font-weight="700"><tspan x="0" y="0">Programming with Python</tspan></text>
    <text id="Internshala_Training_Certificate_" data-name="Internshala (Training Certificate)" transform="translate(1280 1539.453)" fill="#707070" font-size="45" font-family="Cambria"><tspan x="0" y="0">Internshala (Training Certificate)</tspan></text>
    <g id="Rectangle_39" data-name="Rectangle 39" transform="translate(1290 1645.867)" fill="#fff" stroke="#707070" stroke-width="1">
      <rect width="1000" height="130" rx="46" stroke="none"/>
      <rect x="0.5" y="0.5" width="999" height="129" rx="45.5" fill="none"/>
    </g>
    <text id="UI-UX_Design_in_JavaFX" data-name="UI-UX Design in JavaFX" transform="translate(1320 1693.779)" fill="#707070" font-size="50" font-family="Cambria-Bold, Cambria" font-weight="700"><tspan x="0" y="0">UI-UX Design in JavaFX</tspan></text>
    <text id="Udemy_certificate" data-name="Udemy certificate" transform="translate(1320 1747.492)" fill="#707070" font-size="45" font-family="Cambria"><tspan x="0" y="0">Udemy certificate</tspan></text>
    <g id="Rectangle_40" data-name="Rectangle 40" transform="translate(1250 1856)" fill="#fff" stroke="#707070" stroke-width="1">
      <rect width="1100" height="130" rx="46" stroke="none"/>
      <rect x="0.5" y="0.5" width="1099" height="129" rx="45.5" fill="none"/>
    </g>
    <text id="Internet_of_Things" data-name="Internet of Things" transform="translate(1280 1903)" fill="#707070" font-size="50" font-family="Cambria-Bold, Cambria" font-weight="700"><tspan x="0" y="0">Internet of Things</tspan></text>
    <text id="Internshala_Training_Certificate_2" data-name="Internshala (Training Certificate)" transform="translate(1280 1954)" fill="#707070" font-size="45" font-family="Cambria"><tspan x="0" y="0">Internshala (Training Certificate)</tspan></text>
    <text id="Summer_Training_Project" data-name="Summer Training Project" transform="translate(1200 2066)" fill="#707070" font-size="80" font-family="Cambria-Bold, Cambria" font-weight="700"><tspan x="0" y="76">Summer Training Project</tspan></text>
    <line id="Line_13" data-name="Line 13" x2="1150" y2="2" transform="translate(1200 2166)" fill="none" stroke="#707070" stroke-width="2"/>
    <g id="Rectangle_41" data-name="Rectangle 41" transform="translate(1200 2226)" fill="#fff" stroke="#707070" stroke-width="1">
      <rect width="1150" height="450" rx="46" stroke="none"/>
      <rect x="0.5" y="0.5" width="1149" height="449" rx="45.5" fill="none"/>
    </g>
    <text id="Title" transform="translate(1230 2289)" fill="#707070" font-size="45" font-family="Cambria-Bold, Cambria" font-weight="700"><tspan x="0" y="0">Title</tspan></text>
    <text id="_-" data-name="-" transform="translate(1560 2289)" fill="#707070" font-size="45" font-family="Cambria-Bold, Cambria" font-weight="700"><tspan x="0" y="0">-</tspan></text>
    <text id="Duration" transform="translate(1230 2389)" fill="#707070" font-size="45" font-family="Cambria-Bold, Cambria" font-weight="700"><tspan x="0" y="0">Duration</tspan></text>
    <text id="_--2" data-name="-" transform="translate(1560 2389)" fill="#707070" font-size="45" font-family="Cambria-Bold, Cambria" font-weight="700"><tspan x="0" y="0">-</tspan></text>
    <text id="Used_Technologies" data-name="Used 
Technologies" transform="translate(1230 2469)" fill="#707070" font-size="45" font-family="Cambria-Bold, Cambria" font-weight="700"><tspan x="0" y="0">Used </tspan><tspan x="0" y="50">Technologies</tspan></text>
    <text id="_--3" data-name="-" transform="translate(1560 2469)" fill="#707070" font-size="45" font-family="Cambria-Bold, Cambria" font-weight="700"><tspan x="0" y="0">-</tspan></text>
    <text id="Role" transform="translate(1230 2589)" fill="#707070" font-size="45" font-family="Cambria-Bold, Cambria" font-weight="700"><tspan x="0" y="0">Role</tspan></text>
    <text id="_--4" data-name="-" transform="translate(1560 2589)" fill="#707070" font-size="45" font-family="Cambria-Bold, Cambria" font-weight="700"><tspan x="0" y="0">-</tspan></text>
    <text id="Browser_Built_in_JavaFX." data-name="Browser Built in JavaFX." transform="translate(1600 2289)" fill="#707070" font-size="45" font-family="Cambria"><tspan x="0" y="0">Browser Built in JavaFX.</tspan></text>
    <text id="_2_Months_15_Jun_18_-_20_Aug_18_" data-name="2 Months (15 Jun 18 - 20 Aug 18)" transform="translate(1600 2389)" fill="#707070" font-size="45" font-family="Cambria"><tspan x="0" y="0">2 Months (15 Jun 18 - 20 Aug 18)</tspan></text>
    <text id="JavaFX_FXML_JFXCSS_and_SQLite." data-name="JavaFX, FXML, JFXCSS and SQLite." transform="translate(1600 2469)" fill="#707070" font-size="45" font-family="Cambria"><tspan x="0" y="0">JavaFX, FXML, JFXCSS and SQLite.</tspan></text>
    <text id="All_roles_are_done_by_me." data-name="All roles are done by me." transform="translate(1600 2589)" fill="#707070" font-size="45" font-family="Cambria"><tspan x="0" y="0">All roles are done by me.</tspan></text>
    <text id="Mini_Project" data-name="Mini Project" transform="translate(1200 2736)" fill="#707070" font-size="80" font-family="Cambria-Bold, Cambria" font-weight="700"><tspan x="0" y="76">Mini Project</tspan></text>
    <line id="Line_14" data-name="Line 14" x2="1150" y2="2" transform="translate(1200 2836)" fill="none" stroke="#707070" stroke-width="2"/>
    <g id="Rectangle_42" data-name="Rectangle 42" transform="translate(1200 2896)" fill="#fff" stroke="#707070" stroke-width="1">
      <rect width="1150" height="450" rx="46" stroke="none"/>
      <rect x="0.5" y="0.5" width="1149" height="449" rx="45.5" fill="none"/>
    </g>
    <text id="Title-2" data-name="Title" transform="translate(1230 2959)" fill="#707070" font-size="45" font-family="Cambria-Bold, Cambria" font-weight="700"><tspan x="0" y="0">Title</tspan></text>
    <text id="_--5" data-name="-" transform="translate(1560 2959)" fill="#707070" font-size="45" font-family="Cambria-Bold, Cambria" font-weight="700"><tspan x="0" y="0">-</tspan></text>
    <text id="Duration-2" data-name="Duration" transform="translate(1230 3059)" fill="#707070" font-size="45" font-family="Cambria-Bold, Cambria" font-weight="700"><tspan x="0" y="0">Duration</tspan></text>
    <text id="_--6" data-name="-" transform="translate(1560 3059)" fill="#707070" font-size="45" font-family="Cambria-Bold, Cambria" font-weight="700"><tspan x="0" y="0">-</tspan></text>
    <text id="Used_Technologies-2" data-name="Used 
Technologies" transform="translate(1230 3139)" fill="#707070" font-size="45" font-family="Cambria-Bold, Cambria" font-weight="700"><tspan x="0" y="0">Used </tspan><tspan x="0" y="50">Technologies</tspan></text>
    <text id="_--7" data-name="-" transform="translate(1560 3139)" fill="#707070" font-size="45" font-family="Cambria-Bold, Cambria" font-weight="700"><tspan x="0" y="0">-</tspan></text>
    <text id="Role-2" data-name="Role" transform="translate(1230 3259)" fill="#707070" font-size="45" font-family="Cambria-Bold, Cambria" font-weight="700"><tspan x="0" y="0">Role</tspan></text>
    <text id="_--8" data-name="-" transform="translate(1560 3259)" fill="#707070" font-size="45" font-family="Cambria-Bold, Cambria" font-weight="700"><tspan x="0" y="0">-</tspan></text>
    <text id="Deployment_of_web_3.0_site_on_aws_EC2_with_other_services." data-name="Deployment of web 3.0 site on aws
EC2 with other services." transform="translate(1600 2959)" fill="#707070" font-size="45" font-family="Cambria"><tspan x="0" y="0">Deployment of web 3.0 site on aws</tspan><tspan x="0" y="50">EC2 with other services.</tspan></text>
    <text id="_4_Months_13_Aug_18_-_14_Dec_18_" data-name="4 Months ( 13 Aug 18 - 14 Dec 18)" transform="translate(1600 3059)" fill="#707070" font-size="45" font-family="Cambria"><tspan x="0" y="0">4 Months ( 13 Aug 18 - 14 Dec 18)</tspan></text>
    <text id="PHP_Html_Css_JavaScript_Jquery_MYSql_and_AWS_services." data-name="PHP, Html, Css, JavaScript, Jquery,
MYSql and AWS services." transform="translate(1600 3139)" fill="#707070" font-size="45" font-family="Cambria"><tspan x="0" y="0">PHP, Html, Css, JavaScript, Jquery,</tspan><tspan x="0" y="50">MYSql and AWS services.</tspan></text>
    <text id="Backend_Integration_and_Deployment_on_AWS_EC2." data-name="Backend, Integration and Deployment 
on AWS EC2." transform="translate(1600 3259)" fill="#707070" font-size="45" font-family="Cambria"><tspan x="0" y="0">Backend, Integration and Deployment </tspan><tspan x="0" y="50">on AWS EC2.</tspan></text>
    <g id="Path_6" data-name="Path 6">
      <path d="M 0.4999642968177795 2399.426025390625 L 0.4999642968177795 0.5 L 39.49996566772461 0.5 L 39.49996566772461 2381.421142578125 C 39.46744918823242 2381.7236328125 39.19652557373047 2384.587158203125 39.45582580566406 2386.758056640625 C 39.29682922363281 2386.84619140625 39.09735870361328 2386.96435546875 38.83937454223633 2387.117919921875 C 38.10025787353516 2387.5576171875 36.72408294677734 2388.37646484375 36.18172836303711 2388.37646484375 C 36.17824554443359 2388.37646484375 36.17502975463867 2388.37646484375 36.17205810546875 2388.376220703125 C 36.05801773071289 2388.261962890625 35.89784240722656 2388.2041015625 35.69467163085938 2388.2041015625 C 34.56467056274414 2388.2041015625 28.35261154174805 2390.2841796875 18.25584602355957 2393.709716796875 C 14.06437587738037 2395.1318359375 9.730257987976074 2396.602294921875 6.349376201629639 2397.695556640625 C 2.903122901916504 2398.809814453125 1.257865071296692 2399.266357421875 0.4999642968177795 2399.426025390625 Z" stroke="none"/>
      <path d="M 0.9999599456787109 1 L 0.9999599456787109 2398.79345703125 C 1.8623046875 2398.57080078125 3.423732757568359 2398.11669921875 6.25054931640625 2397.2021484375 C 9.61937141418457 2396.112060546875 13.92790222167969 2394.650390625 18.0943717956543 2393.236572265625 C 22.0870189666748 2391.8818359375 26.21584320068359 2390.481201171875 29.38143157958984 2389.455078125 C 34.36613845825195 2387.83935546875 35.2537841796875 2387.7041015625 35.69466781616211 2387.7041015625 C 35.95137786865234 2387.7041015625 36.14982604980469 2387.7685546875 36.29981994628906 2387.85302734375 C 36.43344116210938 2387.81787109375 36.69009399414063 2387.7294921875 37.12849044799805 2387.509033203125 C 37.61731338500977 2387.26318359375 38.15290069580078 2386.9443359375 38.58348846435547 2386.6884765625 C 38.71037673950195 2386.613037109375 38.82307434082031 2386.546142578125 38.92434310913086 2386.48681640625 C 38.72535705566406 2384.363525390625 38.95944976806641 2381.787841796875 38.99996185302734 2381.372314453125 L 38.99996185302734 1 L 0.9999599456787109 1 M -4.00543212890625e-05 0 L 39.99996185302734 0 L 39.99996185302734 2387.0478515625 L 39.99996185302734 2385.734619140625 L 39.99996185302734 2381.421142578125 C 39.99996185302734 2381.421142578125 39.65231323242188 2384.80517578125 39.99996185302734 2387.0478515625 C 39.51615905761719 2387.212646484375 37.17217254638672 2388.87646484375 36.18165588378906 2388.87646484375 C 36.02324295043945 2388.87646484375 35.8995246887207 2388.833984375 35.82349014282227 2388.73583984375 C 35.80771636962891 2388.714599609375 35.76419448852539 2388.704345703125 35.69452667236328 2388.704345703125 C 33.39115142822266 2388.704345703125 2.494510650634766 2400 -4.00543212890625e-05 2400 C -3.333169937133789 2400 -4.444482803344727 2400 -4.444482803344727 2400 L -4.00543212890625e-05 2400 L -4.00543212890625e-05 0 Z M 40.40915298461914 2386.972900390625 C 40.85445404052734 2386.972900390625 40.56356048583984 2387.423095703125 40.29105758666992 2387.423095703125 C 40.16545867919922 2387.423095703125 40.04374694824219 2387.327392578125 39.99996185302734 2387.0478515625 C 40.1774787902832 2386.99462890625 40.31110000610352 2386.972900390625 40.40915298461914 2386.972900390625 Z" stroke="none"/>
    </g>
    <g id="Rectangle_44" data-name="Rectangle 44" transform="translate(2480) rotate(90)" stroke="#000" stroke-width="1">
      <rect width="40" height="2480" stroke="none"/>
      <rect x="0.5" y="0.5" width="39" height="2479" fill="none"/>
    </g>
    <g id="Path_5" data-name="Path 5" transform="translate(2441)">
      <path d="M 0.5000532269477844 1592.35693359375 L 0.5000532269477844 0.5 L 38.60087203979492 0.5 L 38.6550407409668 1577.722534179688 L 36.08908843994141 1578.67041015625 C 36.08642196655273 1578.625122070313 36.08282852172852 1578.581787109375 36.07885360717773 1578.540771484375 L 36.01885223388672 1577.921630859375 L 35.42705154418945 1578.113403320313 C 28.30085372924805 1580.42236328125 20.4078540802002 1583.831420898438 15.04145336151123 1586.284545898438 L 15.10199642181396 1586.423583984375 L 13.30205345153809 1587.088623046875 L 13.28285312652588 1587.095581054688 L 13.26445293426514 1587.104248046875 C 9.65400505065918 1588.783325195313 7.176061630249023 1590.02490234375 6.873337745666504 1590.177368164063 L 0.5000532269477844 1592.35693359375 Z" stroke="none"/>
      <path d="M 1.000053405761719 1 L 1.000053405761719 1591.657348632813 L 6.679134368896484 1589.715209960938 C 7.036972045898438 1589.53564453125 8.902774810791016 1588.603271484375 11.66139602661133 1587.302734375 L 11.61285400390625 1587.180786132813 C 11.62561416625977 1587.175415039063 12.91090202331543 1586.625610351563 14.8483715057373 1585.823120117188 C 20.02551651000977 1583.456665039063 27.54277801513672 1580.205810546875 34.46701049804688 1577.902099609375 C 34.43178939819336 1577.308227539063 34.6394157409668 1576.904418945313 34.83965301513672 1576.657836914063 C 35.08925247192383 1576.350219726563 35.57305145263672 1575.9833984375 36.46025466918945 1575.9833984375 C 36.91707229614258 1575.9833984375 37.5827522277832 1576.105346679688 38.15499496459961 1576.367309570313 L 38.10088729858398 1 L 1.000053405761719 1 M 5.340576171875e-05 0 L 39.10085296630859 0 L 39.15505218505859 1578.070556640625 L 35.41866302490234 1579.450927734375 C 35.5689811706543 1579.249877929688 35.61912536621094 1578.979614257813 35.58125305175781 1578.5888671875 C 36.13600158691406 1578.4091796875 36.685546875 1578.236206054688 37.22965240478516 1578.070556640625 C 39.45852279663086 1578.070556640625 37.71659469604492 1576.983276367188 36.46023178100586 1576.9833984375 C 35.83210754394531 1576.9833984375 35.32526397705078 1577.255249023438 35.49685287475586 1578.070556640625 C 35.53802108764648 1578.263916015625 35.56640243530273 1578.435668945313 35.58125305175781 1578.5888671875 C 28.60187149047852 1580.850219726563 20.89024925231934 1584.16064453125 15.2491455078125 1586.739501953125 C 13.28437232971191 1587.55322265625 12.00625419616699 1588.100219726563 12.00625419616699 1588.100219726563 L 13.4752140045166 1587.557495117188 C 9.599775314331055 1589.360107421875 7.067653656005859 1590.63916015625 7.067653656005859 1590.63916015625 L 5.340576171875e-05 1593.05615234375 L 5.340576171875e-05 1600 L 5.340576171875e-05 0 Z M 35.41866302490234 1579.450927734375 C 35.13528823852539 1579.829956054688 34.49584197998047 1579.962524414063 33.41840744018555 1580.18994140625 L 35.41866302490234 1579.450927734375 Z M 33.41840744018555 1580.18994140625 L 13.4752140045166 1587.557495117188 C 14.03940200805664 1587.295043945313 14.63171195983887 1587.021728515625 15.2491455078125 1586.739501953125 C 18.95576858520508 1585.204223632813 25.10524368286133 1582.719604492188 29.7204532623291 1581.168579101563 C 31.29556846618652 1580.639770507813 32.5119743347168 1580.381225585938 33.41840744018555 1580.18994140625 Z" stroke="none"/>
    </g>
    <line id="Line_15" data-name="Line 15" y1="13" x2="38.5" transform="translate(0 2387.5)" fill="none" stroke="#000" stroke-width="1"/>
    <line id="Line_16" data-name="Line 16" y1="15" x2="39" transform="translate(2441.5 1577.5)" fill="none" stroke="#000" stroke-width="1"/>
    <line id="Line_17" data-name="Line 17" y1="4" x2="13" transform="translate(2464.5 1578.5)" fill="none" stroke="#000" stroke-width="1"/>
    <line id="Line_18" data-name="Line 18" transform="translate(2465.5 1582.5)" fill="none" stroke="#707070" stroke-width="1"/>
    <line id="Line_19" data-name="Line 19" transform="translate(2477.5 1578.5)" fill="none" stroke="#707070" stroke-width="1"/>
    <line id="Line_20" data-name="Line 20" transform="translate(2476.5 1578.5)" fill="none" stroke="#000" stroke-width="1"/>
    <line id="Line_21" data-name="Line 21" x2="2" y2="1" transform="translate(2475.5 1577.5)" fill="none" stroke="#000" stroke-width="1"/>
  </g>
</svg>
